<svg xmlns="http://www.w3.org/2000/svg" viewBox="150 258 740 312" role="img" aria-label="HOC">
  <defs>
    <!-- The master artwork "opens" the O/C with bg-coloured halo strokes; here
         the same paths become a mask so the gaps are true transparency and the
         mark sits on any background (blurred chrome, cards, dark). -->
    <mask id="gaps">
      <rect x="150" y="258" width="740" height="312" fill="#fff"/>
      <g fill="none" stroke="#000" stroke-width="24" stroke-linecap="round" stroke-linejoin="round">
        <path d="M 397 439.4 H 440"/>
        <path d="M 556 423.3 H 604"/>
        <path d="M 610 423.3 H 638.8 L 652 462.9 A 99.4 99.4 0 0 0 667 483.5"/>
      </g>
    </mask>
  </defs>
  <g mask="url(#gaps)">
    <g fill="none" stroke="#e8ecf3" stroke-width="13.5" stroke-linecap="round">
      <line x1="204.2" y1="309.4" x2="204.2" y2="517.6"/>
      <line x1="350.9" y1="309.4" x2="350.9" y2="517.6"/>
      <line x1="204.2" y1="411.9" x2="350.9" y2="411.9"/>
    </g>
    <circle cx="501.6" cy="414.7" r="102.9" fill="none" stroke="#e8ecf3" stroke-width="13.5"/>
    <path d="M 800.5 336.2 A 99.4 99.4 0 1 0 800.5 491.6"
          fill="none" stroke="#e8ecf3" stroke-width="13.5" stroke-linecap="round"/>
  </g>
  <path d="M 395.6 439.4 H 450 L 461 433 L 476.9 454.6
           L 501.6 309.5 L 533.5 464 L 562 423.3
           H 638.8 L 652 462.9
           A 99.4 99.4 0 0 0 672 486.7"
        fill="none" stroke="#c9a877" stroke-width="9"
        stroke-linecap="round" stroke-linejoin="round"/>
</svg>
